<?xml version="1.0" standalone="no"?>
<!DOCTYPE svg PUBLIC "-//W3C//DTD SVG 20010904//EN"
 "http://www.w3.org/TR/2001/REC-SVG-20010904/DTD/svg10.dtd">
<svg version="1.0" xmlns="http://www.w3.org/2000/svg"
 width="512.000000pt" height="512.000000pt" viewBox="0 0 512.000000 512.000000"
 preserveAspectRatio="xMidYMid meet">
<metadata>
Created by potrace 1.11, written by Peter Selinger 2001-2013
</metadata>
<g transform="translate(0.000000,512.000000) scale(0.100000,-0.100000)"
fill="#000000" stroke="none">
<path d="M2369 5116 c-2 -2 -38 -7 -78 -10 -41 -4 -78 -9 -81 -11 -3 -2 -33
-7 -65 -10 -109 -13 -387 -87 -490 -130 -16 -7 -55 -23 -85 -35 -548 -222
-1030 -674 -1301 -1219 -91 -184 -178 -425 -203 -561 -2 -14 -11 -56 -19 -95
-32 -150 -41 -256 -42 -470 0 -99 3 -216 7 -260 21 -231 97 -533 193 -760 28
-66 132 -272 153 -302 10 -15 39 -59 63 -98 106 -167 289 -378 457 -525 226
-196 523 -372 797 -470 107 -39 117 -42 130 -46 6 -1 42 -12 80 -23 71 -20
193 -46 262 -57 21 -3 49 -7 63 -10 101 -19 470 -26 605 -11 590 63 1117 311
1543 725 51 50 85 87 178 194 237 274 468 757 529 1107 3 19 7 37 9 40 3 5 9
42 22 131 20 144 26 479 12 605 -40 352 -134 658 -294 956 -252 470 -634 839
-1114 1077 -164 82 -174 86 -288 126 -151 54 -353 103 -502 122 -25 3 -56 8
-70 10 -28 6 -466 15 -471 10z"/>
</g>
</svg>
